<?xml version="1.0" standalone="no"?>
<!DOCTYPE svg PUBLIC "-//W3C//DTD SVG 20010904//EN"
 "http://www.w3.org/TR/2001/REC-SVG-20010904/DTD/svg10.dtd">
<svg version="1.0" xmlns="http://www.w3.org/2000/svg"
 width="512.000000pt" height="512.000000pt" viewBox="0 0 512.000000 512.000000"
 preserveAspectRatio="xMidYMid meet">

<g transform="translate(0.000000,512.000000) scale(0.100000,-0.100000)"
fill="#ffffff" stroke="none">
<path d="M171 5103 c-26 -9 -65 -36 -92 -63 -81 -81 -100 -199 -49 -302 15
-30 344 -366 1088 -1111 l1067 -1067 -1067 -1068 c-745 -746 -1073 -1080
-1088 -1110 -110 -222 120 -459 347 -356 26 11 384 362 1110 1088 l1073 1071
1067 -1067 c754 -752 1081 -1072 1112 -1088 96 -48 208 -34 290 36 81 69 110
180 76 285 -16 52 -65 102 -1094 1131 l-1076 1078 1076 1078 c1029 1029 1078
1079 1094 1131 34 105 5 216 -76 285 -82 70 -194 84 -290 36 -31 -16 -358
-336 -1112 -1088 l-1067 -1067 -1078 1076 c-988 988 -1081 1078 -1126 1093
-61 20 -127 19 -185 -1z"/>
</g>
</svg>
