<?xml version="1.0" standalone="no"?>
<!DOCTYPE svg PUBLIC "-//W3C//DTD SVG 20010904//EN"
 "http://www.w3.org/TR/2001/REC-SVG-20010904/DTD/svg10.dtd">
<svg version="1.0" xmlns="http://www.w3.org/2000/svg"
 width="512.000000pt" height="512.000000pt" viewBox="0 0 512.000000 512.000000"
 preserveAspectRatio="xMidYMid meet">
<metadata>
Created by potrace 1.16, written by Peter Selinger 2001-2019
</metadata>
<g transform="translate(0.000000,512.000000) scale(0.100000,-0.100000)"
fill="#fff" stroke="none">
<path d="M2990 5113 c-50 -5 -165 -31 -236 -53 -323 -99 -567 -344 -673 -675
-57 -179 -63 -241 -68 -707 l-5 -428 -389 0 -389 0 0 -460 0 -460 390 0 390 0
0 -1165 0 -1165 475 0 475 0 0 1165 0 1165 393 0 392 0 58 453 c32 248 58 455
57 460 0 4 -203 7 -451 7 l-451 0 4 358 c4 340 5 360 27 427 18 56 34 80 75
121 94 94 198 114 609 114 l217 0 0 409 0 409 -57 6 c-203 22 -707 34 -843 19z"/>
</g>
</svg>
