<?xml version="1.0" standalone="no"?>
<!DOCTYPE svg PUBLIC "-//W3C//DTD SVG 20010904//EN"
 "http://www.w3.org/TR/2001/REC-SVG-20010904/DTD/svg10.dtd">
<svg version="1.0" xmlns="http://www.w3.org/2000/svg"
 width="512.000000pt" height="512.000000pt" viewBox="0 0 512.000000 512.000000"
 preserveAspectRatio="xMidYMid meet">
<metadata>
Created by potrace 1.16, written by Peter Selinger 2001-2019
</metadata>
<g transform="translate(0.000000,512.000000) scale(0.100000,-0.100000)"
fill="#fff" stroke="none">
<path d="M1497 5109 c-428 -23 -754 -139 -991 -350 -317 -283 -456 -611 -486
-1149 -27 -487 -20 -1997 11 -2270 42 -382 172 -680 392 -902 178 -179 350
-280 602 -353 270 -78 470 -88 1690 -82 980 4 1059 7 1260 48 590 119 990 522
1104 1111 40 206 42 315 39 1493 l-4 1130 -23 125 c-60 327 -178 568 -374 768
-277 283 -586 402 -1117 432 -215 12 -1881 11 -2103 -1z m2193 -479 c298 -29
504 -108 657 -253 114 -107 187 -226 237 -386 38 -120 55 -231 66 -436 13
-233 13 -1767 0 -1996 -23 -415 -99 -620 -298 -811 -158 -150 -340 -227 -617
-258 -248 -28 -2097 -28 -2330 0 -194 23 -354 71 -471 141 -67 39 -199 161
-248 228 -79 107 -141 269 -170 441 -27 162 -36 486 -36 1265 0 766 9 1081 35
1240 44 274 147 467 322 608 92 74 159 110 283 151 131 43 278 65 512 76 266
12 1917 4 2058 -10z"/>
<path d="M3848 4227 c-150 -43 -241 -192 -216 -353 11 -70 35 -118 85 -167 61
-62 105 -80 206 -85 83 -4 91 -3 152 27 69 34 112 78 148 151 30 63 31 186 1
251 -66 142 -227 217 -376 176z"/>
<path d="M2396 3869 c-201 -27 -400 -104 -576 -222 -94 -63 -280 -249 -343
-344 -99 -150 -174 -332 -208 -508 -21 -105 -18 -388 5 -493 115 -534 503
-923 1038 -1039 116 -25 400 -25 516 0 270 59 474 169 668 362 197 195 312
408 371 685 25 118 25 382 0 500 -114 537 -510 935 -1042 1045 -95 20 -332 28
-429 14z m380 -489 c301 -77 533 -309 615 -615 17 -62 22 -109 22 -205 0 -144
-21 -237 -78 -357 -182 -384 -622 -580 -1015 -452 -288 93 -497 318 -577 619
-24 90 -23 289 1 385 102 397 464 669 862 649 51 -2 127 -13 170 -24z"/>
</g>
</svg>
