<?xml version="1.0" standalone="no"?>
<!DOCTYPE svg PUBLIC "-//W3C//DTD SVG 20010904//EN"
 "http://www.w3.org/TR/2001/REC-SVG-20010904/DTD/svg10.dtd">
<svg version="1.0" xmlns="http://www.w3.org/2000/svg"
 width="512.000000pt" height="512.000000pt" viewBox="0 0 512.000000 512.000000"
 preserveAspectRatio="xMidYMid meet">
<metadata>
Created by potrace 1.16, written by Peter Selinger 2001-2019
</metadata>
<g transform="translate(0.000000,512.000000) scale(0.100000,-0.100000)"
fill="#fff" stroke="none">
<path d="M860 4591 c-89 -29 -141 -60 -206 -125 -97 -97 -144 -210 -144 -346
0 -201 107 -372 287 -457 71 -34 87 -38 180 -41 125 -5 209 17 302 79 78 52
125 107 167 194 73 151 71 303 -4 455 -33 67 -129 165 -198 202 -108 58 -273
75 -384 39z"/>
<path d="M3485 3314 c-315 -45 -537 -173 -674 -390 l-31 -48 0 187 0 187 -410
0 -410 0 0 -1370 0 -1370 430 0 429 0 3 808 c4 791 4 809 25 884 63 222 185
334 391 356 267 30 427 -80 489 -335 15 -60 17 -165 20 -890 l4 -823 430 0
430 0 -4 933 c-4 808 -6 945 -21 1026 -54 311 -157 521 -320 653 -107 86 -237
142 -403 172 -83 16 -322 28 -378 20z"/>
<path d="M570 1880 l0 -1370 430 0 430 0 0 1370 0 1370 -430 0 -430 0 0 -1370z"/>
</g>
</svg>
